<svg xmlns="http://www.w3.org/2000/svg" version="1.1" xmlns:xlink="http://www.w3.org/1999/xlink" xmlns:svgjs="http://svgjs.com/svgjs" width="1440" height="560" preserveAspectRatio="none" viewBox="0 0 1440 560"><g mask="url(&quot;#SvgjsMask1000&quot;)" fill="none"><rect width="1440" height="560" x="0" y="0" fill="#0e2a47"></rect><path d="M444.68 161.93 a41.54 41.54 0 1 0 83.08 0 a41.54 41.54 0 1 0 -83.08 0z" stroke="#e73635"></path><path d="M919.1 16.81 a54.09 54.09 0 1 0 108.18 0 a54.09 54.09 0 1 0 -108.18 0z" fill="#e73635"></path><path d="M20.06 22.15a41.33 41.33 0 1 0-16.54 80.99z" stroke="#e73635"></path><path d="M13.78 389.18L56.71 389.18L56.71 432.11L13.78 432.11z" stroke="#037b0b"></path><path d="M1140.76 25.38L1167.4 25.38L1167.4 52.02L1140.76 52.02z" stroke="#037b0b"></path><path d="M1257.04 218.07a40.29 40.29 0 1 0 29.58-74.95z" stroke="#e73635"></path><path d="M821.23 434.32a35.71 35.71 0 1 0 29.14 65.2z" fill="#037b0b"></path><path d="M152.58 71.58L181.16 71.58L181.16 76.62L152.58 76.62z" fill="#d3b714"></path><path d="M479.56 294.74L521.96 294.74L521.96 312.36L479.56 312.36z" stroke="#d3b714"></path><path d="M920.12 531.72L959.72 531.72L959.72 565.32L920.12 565.32z" fill="#037b0b"></path><path d="M52.22 197.21a4.58 4.58 0 1 0 1.84 8.97z" fill="#d3b714"></path><path d="M180.28 239.36L204.2 239.36L204.2 263.28L180.28 263.28z" stroke="#037b0b"></path><path d="M1174.9 240.93 a25.39 25.39 0 1 0 50.78 0 a25.39 25.39 0 1 0 -50.78 0z" stroke="#d3b714"></path><path d="M1148.59 495.92L1153.71 495.92L1153.71 522.3L1148.59 522.3z" fill="#037b0b"></path><path d="M375.6 0.98 a40.43 40.43 0 1 0 80.86 0 a40.43 40.43 0 1 0 -80.86 0z" fill="#d3b714"></path><path d="M174.15 409.51a48.93 48.93 0 1 0-14.53 96.77z" stroke="#d3b714"></path><path d="M1429.54 163.26L1433.51 163.26L1433.51 164.19L1429.54 164.19z" fill="#e73635"></path><path d="M830.88 30.62a2.26 2.26 0 1 0 0.42 4.5z" stroke="#d3b714"></path><path d="M1098.68 146.7L1145.79 146.7L1145.79 193.81L1098.68 193.81z" stroke="#e73635"></path><path d="M40.31 19.65L94.38 19.65L94.38 73.72L40.31 73.72z" fill="#e73635"></path><path d="M700.25 414.08L727.83 414.08L727.83 441.66L700.25 441.66z" stroke="#037b0b"></path><path d="M1372.3 458.91a24.69 24.69 0 1 0 19.4-45.41z" stroke="#d3b714"></path><path d="M462.64 442.81L491.28 442.81L491.28 472.3L462.64 472.3z" fill="#037b0b"></path><path d="M35.35 25.58L60.91 25.58L60.91 53.03L35.35 53.03z" fill="#d3b714"></path><path d="M555.5 292.52L595.71 292.52L595.71 316.19L555.5 316.19z" stroke="#d3b714"></path><path d="M986.09 370.1L1041.26 370.1L1041.26 419.16L986.09 419.16z" stroke="#d3b714"></path><path d="M811.82 51.07L814.01 51.07L814.01 78.57L811.82 78.57z" fill="#e73635"></path><path d="M1017.92 384.26L1019.32 384.26L1019.32 385.66L1017.92 385.66z" stroke="#037b0b"></path><path d="M641.86 5.08 a12.03 12.03 0 1 0 24.06 0 a12.03 12.03 0 1 0 -24.06 0z" fill="#d3b714"></path><path d="M666.61 322.81 a45.38 45.38 0 1 0 90.76 0 a45.38 45.38 0 1 0 -90.76 0z" stroke="#d3b714"></path><path d="M1148.17 473.98L1201.81 473.98L1201.81 527.62L1148.17 527.62z" fill="#e73635"></path><path d="M742.96 207.43L790.27 207.43L790.27 252.47L742.96 252.47z" fill="#037b0b"></path><path d="M343.12 125.76L353.04 125.76L353.04 128.61L343.12 128.61z" stroke="#d3b714"></path></g><defs><mask id="SvgjsMask1000"><rect width="1440" height="560" fill="#ffffff"></rect></mask></defs></svg>