<svg xmlns="http://www.w3.org/2000/svg" version="1.1" xmlns:xlink="http://www.w3.org/1999/xlink" xmlns:svgjs="http://svgjs.com/svgjs" width="1440" height="560" preserveAspectRatio="none" viewBox="0 0 1440 560"><g mask="url(&quot;#SvgjsMask1011&quot;)" fill="none"><path d="M743.61 75.37a5.6 5.6 0 1 0 10.27 4.46 5.6 5.6 0 1 0-10.27-4.46zM758.29 81.74a5.6 5.6 0 1 0 10.27 4.45 5.6 5.6 0 1 0-10.27-4.45zM772.97 88.1a5.6 5.6 0 1 0 10.27 4.46 5.6 5.6 0 1 0-10.27-4.46zM787.65 94.47a5.6 5.6 0 1 0 10.27 4.46 5.6 5.6 0 1 0-10.27-4.46z" fill="#037b0b"></path><path d="M500.38 124.89L487.65 123.51 486.19 110.79 473.46 109.42 472.01 96.69 459.27 95.32 457.82 82.6M506.02 119.21L493.29 117.84 491.83 105.12 479.1 103.74 477.65 91.02 464.91 89.64 463.46 76.92" stroke="#e73635" stroke-width="2.74"></path><rect width="191.6" height="191.6" clip-path="url(&quot;#SvgjsClipPath1012&quot;)" x="-48.1" y="160.08" fill="url(#SvgjsPattern1013)" transform="rotate(98.64, 47.7, 255.88)"></rect><path d="M307.56 461a5.6 5.6 0 1 0-8.92-6.78 5.6 5.6 0 1 0 8.92 6.78zM294.82 451.31a5.6 5.6 0 1 0-8.91-6.77 5.6 5.6 0 1 0 8.91 6.77zM282.08 441.63a5.6 5.6 0 1 0-8.91-6.78 5.6 5.6 0 1 0 8.91 6.78zM269.35 431.95a5.6 5.6 0 1 0-8.92-6.78 5.6 5.6 0 1 0 8.92 6.78zM342.72 467.62a5.6 5.6 0 1 0-8.92-6.77 5.6 5.6 0 1 0 8.92 6.77zM329.98 457.94a5.6 5.6 0 1 0-8.92-6.78 5.6 5.6 0 1 0 8.92 6.78zM317.24 448.26a5.6 5.6 0 1 0-8.91-6.78 5.6 5.6 0 1 0 8.91 6.78zM304.5 438.58a5.6 5.6 0 1 0-8.91-6.78 5.6 5.6 0 1 0 8.91 6.78zM377.88 474.25a5.6 5.6 0 1 0-8.92-6.78 5.6 5.6 0 1 0 8.92 6.78zM365.14 464.57a5.6 5.6 0 1 0-8.92-6.78 5.6 5.6 0 1 0 8.92 6.78zM352.4 454.89a5.6 5.6 0 1 0-8.92-6.78 5.6 5.6 0 1 0 8.92 6.78zM339.66 445.2a5.6 5.6 0 1 0-8.91-6.77 5.6 5.6 0 1 0 8.91 6.77z" fill="#e73635"></path><path d="M1403.09 59.64L1408.3 71.34 1398.03 78.99 1403.23 90.69 1392.96 98.34 1398.17 110.04 1387.9 117.68M1395.35 57.61L1400.56 69.31 1390.29 76.96 1395.49 88.66 1385.22 96.31 1390.43 108.01 1380.16 115.66" stroke="#d3b714" stroke-width="1"></path><path d="M392.32 101.51 L495.59 250.29L343.7420749959557 276.1129250040443z" stroke="#037b0b" stroke-width="2.17" stroke-dasharray="3, 3"></path><rect width="216" height="216" clip-path="url(&quot;#SvgjsClipPath1014&quot;)" x="1027.04" y="-100.93" fill="url(#SvgjsPattern1015)" transform="rotate(187.11, 1135.04, 7.07)"></rect><rect width="185.64" height="185.64" clip-path="url(&quot;#SvgjsClipPath1016&quot;)" x="1286.96" y="182.87" fill="url(#SvgjsPattern1017)" transform="rotate(350.38, 1379.78, 275.69)"></rect><rect width="336" height="336" clip-path="url(&quot;#SvgjsClipPath1018&quot;)" x="508.44" y="354.07" fill="url(#SvgjsPattern1019)" transform="rotate(112.72, 676.44, 522.07)"></rect><path d="M943.94 299.23L954.43 291.88 963.9 300.5 974.39 293.15 983.86 301.77 994.35 294.42 1003.82 303.04" stroke="#e73635" stroke-width="1.02" stroke-dasharray="4, 4"></path><circle r="68.14636384592347" cx="268.64" cy="99.04" stroke="#d3b714" stroke-width="2.93" stroke-dasharray="4, 4"></circle><rect width="288" height="288" clip-path="url(&quot;#SvgjsClipPath1020&quot;)" x="821" y="64.73" fill="url(#SvgjsPattern1021)" transform="rotate(342.05, 965, 208.73)"></rect></g><defs><mask id="SvgjsMask1011"><rect width="1440" height="560" fill="#ffffff"></rect></mask><pattern x="0" y="0" width="9.58" height="9.58" patternUnits="userSpaceOnUse" id="SvgjsPattern1013"><path d="M0 9.58L4.79 0L9.58 9.58" stroke="#e73635" fill="none"></path></pattern><clipPath id="SvgjsClipPath1012"><circle r="47.9" cx="47.7" cy="255.88"></circle></clipPath><pattern x="0" y="0" width="6" height="6" patternUnits="userSpaceOnUse" id="SvgjsPattern1015"><path d="M3 1L3 5M1 3L5 3" stroke="#e73635" fill="none" stroke-width="1"></path></pattern><clipPath id="SvgjsClipPath1014"><circle r="54" cx="1135.04" cy="7.07"></circle></clipPath><pattern x="0" y="0" width="185.64" height="7.14" patternUnits="userSpaceOnUse" id="SvgjsPattern1017"><rect width="185.64" height="3.57" x="0" y="0" fill="#037b0b"></rect><rect width="185.64" height="3.57" x="0" y="3.57" fill="rgba(0, 0, 0, 0)"></rect></pattern><clipPath id="SvgjsClipPath1016"><circle r="46.41" cx="1379.78" cy="275.69"></circle></clipPath><pattern x="0" y="0" width="6" height="6" patternUnits="userSpaceOnUse" id="SvgjsPattern1019"><path d="M0 6L3 0L6 6" stroke="#e73635" fill="none"></path></pattern><clipPath id="SvgjsClipPath1018"><circle r="84" cx="676.44" cy="522.07"></circle></clipPath><pattern x="0" y="0" width="6" height="6" patternUnits="userSpaceOnUse" id="SvgjsPattern1021"><path d="M0 6L3 0L6 6" stroke="#d3b714" fill="none"></path></pattern><clipPath id="SvgjsClipPath1020"><circle r="72" cx="965" cy="208.73"></circle></clipPath></defs></svg>