<?xml version="1.0" encoding="UTF-8" standalone="no"?>
<!-- Created with Inkscape (http://www.inkscape.org/) -->

<svg
   width="200mm"
   height="200mm"
   viewBox="0 0 200 200"
   version="1.1"
   id="svg5"
   inkscape:version="1.2 (1:1.2.1+202207142221+cd75a1ee6d)"
   sodipodi:docname="dsa.svg"
   xmlns:inkscape="http://www.inkscape.org/namespaces/inkscape"
   xmlns:sodipodi="http://sodipodi.sourceforge.net/DTD/sodipodi-0.dtd"
   xmlns="http://www.w3.org/2000/svg"
   xmlns:svg="http://www.w3.org/2000/svg">
  <sodipodi:namedview
     id="namedview7"
     pagecolor="#505050"
     bordercolor="#ffffff"
     borderopacity="1"
     inkscape:showpageshadow="0"
     inkscape:pageopacity="0"
     inkscape:pagecheckerboard="1"
     inkscape:deskcolor="#505050"
     inkscape:document-units="mm"
     showgrid="false"
     inkscape:zoom="0.70710678"
     inkscape:cx="219.91021"
     inkscape:cy="449.71991"
     inkscape:window-width="1366"
     inkscape:window-height="740"
     inkscape:window-x="0"
     inkscape:window-y="0"
     inkscape:window-maximized="1"
     inkscape:current-layer="layer1" />
  <defs
     id="defs2" />
  <g
     inkscape:label="Layer 1"
     inkscape:groupmode="layer"
     id="layer1">
    <rect
       style="fill:#ffffff;stroke-width:0.264583"
       id="rect473-6"
       width="17.46174"
       height="3.166398"
       x="49.46524"
       y="132.43474"
       ry="1.583199"
       transform="rotate(-54.119072)" />
    <rect
       style="fill:#ffffff;stroke-width:0.264583"
       id="rect473-0"
       width="17.46174"
       height="3.166398"
       x="126.28042"
       y="-93.752914"
       ry="1.583199"
       transform="rotate(45.393337)" />
    <rect
       style="fill:#ffffff;stroke-width:0.264583"
       id="rect473-62"
       width="17.46174"
       height="3.166398"
       x="116.98287"
       y="-85.152977"
       ry="1.583199"
       transform="rotate(53.926685)" />
    <rect
       style="fill:#ffffff;stroke-width:0.264583"
       id="rect473-61"
       width="17.46174"
       height="3.166398"
       x="30.159201"
       y="128.17039"
       ry="1.583199"
       transform="rotate(-50.556219)"
       inkscape:transform-center-x="0.24166885"
       inkscape:transform-center-y="0.24512498" />
    <path
       style="fill:#00ff00;stroke-width:0.264583"
       id="path313"
       sodipodi:type="arc"
       sodipodi:cx="151.56232"
       sodipodi:cy="22.324135"
       sodipodi:rx="8.8671589"
       sodipodi:ry="9.0715151"
       sodipodi:start="0"
       sodipodi:end="6.063015"
       sodipodi:open="true"
       sodipodi:arc-type="arc"
       d="m 160.42948,22.324135 a 8.8671589,9.0715151 0 0 1 -8.37934,9.057776 8.8671589,9.0715151 0 0 1 -9.30131,-8.061153 8.8671589,9.0715151 0 0 1 7.35592,-9.944742 8.8671589,9.0715151 0 0 1 10.11067,6.966938" />
    <path
       style="fill:#00ff00;stroke-width:0.264583"
       id="path313-9"
       sodipodi:type="arc"
       sodipodi:cx="133.828"
       sodipodi:cy="40.467163"
       sodipodi:rx="8.8671589"
       sodipodi:ry="9.0715151"
       sodipodi:start="0"
       sodipodi:end="6.063015"
       sodipodi:open="true"
       sodipodi:arc-type="arc"
       d="m 142.69516,40.467163 a 8.8671589,9.0715151 0 0 1 -8.37933,9.057777 8.8671589,9.0715151 0 0 1 -9.30131,-8.061154 8.8671589,9.0715151 0 0 1 7.35591,-9.944742 8.8671589,9.0715151 0 0 1 10.11068,6.966938" />
    <path
       style="fill:#00ff00;stroke-width:0.264583"
       id="path313-1"
       sodipodi:type="arc"
       sodipodi:cx="169.29663"
       sodipodi:cy="40.467163"
       sodipodi:rx="8.8671589"
       sodipodi:ry="9.0715151"
       sodipodi:start="0"
       sodipodi:end="6.063015"
       sodipodi:open="true"
       sodipodi:arc-type="arc"
       d="m 178.16379,40.467163 a 8.8671589,9.0715151 0 0 1 -8.37933,9.057777 8.8671589,9.0715151 0 0 1 -9.30131,-8.061154 8.8671589,9.0715151 0 0 1 7.35591,-9.944742 8.8671589,9.0715151 0 0 1 10.11068,6.966938" />
    <path
       style="fill:#00ff00;stroke-width:0.264583"
       id="path313-0"
       sodipodi:type="arc"
       sodipodi:cx="149.33363"
       sodipodi:cy="63.754055"
       sodipodi:rx="8.8671589"
       sodipodi:ry="9.0715151"
       sodipodi:start="0"
       sodipodi:end="6.063015"
       sodipodi:open="true"
       sodipodi:arc-type="arc"
       d="m 158.20079,63.754055 a 8.8671589,9.0715151 0 0 1 -8.37933,9.057777 8.8671589,9.0715151 0 0 1 -9.30131,-8.061154 8.8671589,9.0715151 0 0 1 7.35591,-9.944742 8.8671589,9.0715151 0 0 1 10.11068,6.966938" />
    <path
       style="fill:#00ff00;stroke-width:0.264583"
       id="path313-93"
       sodipodi:type="arc"
       sodipodi:cx="116.09369"
       sodipodi:cy="64.314224"
       sodipodi:rx="8.8671589"
       sodipodi:ry="9.0715151"
       sodipodi:start="0"
       sodipodi:end="6.063015"
       sodipodi:open="true"
       sodipodi:arc-type="arc"
       d="m 124.96085,64.314224 a 8.8671589,9.0715151 0 0 1 -8.37934,9.057777 8.8671589,9.0715151 0 0 1 -9.3013,-8.061153 8.8671589,9.0715151 0 0 1 7.35591,-9.944742 8.8671589,9.0715151 0 0 1 10.11068,6.966937" />
    <rect
       style="fill:#00ff00;stroke-width:0.264583"
       id="rect606"
       width="22.892097"
       height="17.531452"
       x="14.264546"
       y="97.232796"
       ry="1.5831989" />
    <rect
       style="fill:#ffff00;stroke-width:0.264583"
       id="rect606-7"
       width="22.892097"
       height="17.531452"
       x="50.370239"
       y="97.232796"
       ry="1.5831989" />
    <rect
       style="fill:#00ff00;stroke-width:0.264583"
       id="rect606-9"
       width="22.892097"
       height="17.531452"
       x="86.475929"
       y="97.232796"
       ry="1.5831989" />
    <rect
       style="fill:#ffff00;stroke-width:0.264583"
       id="rect606-2"
       width="22.892097"
       height="17.531452"
       x="122.58163"
       y="97.232796"
       ry="1.5831989" />
    <rect
       style="fill:#ffffff;stroke-width:0.264583"
       id="rect712"
       width="11.204661"
       height="1.983285"
       x="38.16111"
       y="105.00687"
       ry="0.99164248" />
    <rect
       style="fill:#ffffff;stroke-width:0.264583"
       id="rect712-0"
       width="11.204661"
       height="1.983285"
       x="74.266808"
       y="105.99851"
       ry="0.99164248" />
    <rect
       style="fill:#ffffff;stroke-width:0.264583"
       id="rect712-0-5"
       width="20.683584"
       height="3.1451569"
       x="147.75565"
       y="-149.22858"
       ry="1.5725784"
       transform="rotate(89.493833)" />
    <rect
       style="fill:#ffffff;stroke-width:0.264583"
       id="rect712-0-5-0"
       width="20.683584"
       height="3.1451569"
       x="155.55196"
       y="172.78784"
       ry="1.5725784" />
    <rect
       style="fill:#ffffff;stroke-width:0.264583"
       id="rect712-0-5-3"
       width="20.683584"
       height="3.1451569"
       x="156.3457"
       y="137.59825"
       ry="1.5725784" />
    <rect
       style="fill:#ffffff;stroke-width:0.264583"
       id="rect712-2"
       width="11.204661"
       height="1.983285"
       x="110.37249"
       y="105.00687"
       ry="0.99164248" />
    <rect
       style="fill:#00ff00;stroke-width:0.264583"
       id="rect754"
       width="39.809399"
       height="7.9393172"
       x="13.089076"
       y="22.324135"
       ry="1.3268216" />
    <rect
       style="fill:#00ff00;stroke-width:0.264583"
       id="rect754-3"
       width="39.809399"
       height="7.9393172"
       x="13.089076"
       y="40.863625"
       ry="1.3268216" />
    <rect
       style="fill:#00ffff;stroke-width:0.264583"
       id="rect754-7"
       width="39.809399"
       height="7.9393172"
       x="13.089076"
       y="50.133366"
       ry="1.3268216" />
    <rect
       style="fill:#00ff00;stroke-width:0.264583"
       id="rect754-5"
       width="39.809399"
       height="7.9393172"
       x="13.089076"
       y="59.489807"
       ry="1.3268216" />
    <rect
       style="fill:#00ffff;stroke-width:0.264583"
       id="rect754-9"
       width="39.809399"
       height="7.9393172"
       x="13.089076"
       y="31.59388"
       ry="1.3268216" />
    <rect
       style="fill:#0065ff;fill-opacity:1;stroke-width:0.264583"
       id="rect822"
       width="30.067629"
       height="23.894436"
       x="75.50573"
       y="20.128576"
       ry="6.8368645" />
    <text
       xml:space="preserve"
       style="font-size:9.23306px;font-family:Nakula;-inkscape-font-specification:Nakula;fill:#ffffff;fill-opacity:1;stroke-width:0.264583"
       x="81.430611"
       y="34.972549"
       id="text1555"
       transform="scale(0.98545916,1.0147554)"><tspan
         sodipodi:role="line"
         id="tspan1553"
         style="font-style:normal;font-variant:normal;font-weight:normal;font-stretch:normal;font-family:Lato;-inkscape-font-specification:Lato;fill:#ffffff;stroke-width:0.264583"
         x="81.430611"
         y="34.972549">Hash</tspan></text>
    <rect
       style="fill:#ffffff;stroke-width:0.264583"
       id="rect473-6-2"
       width="17.46174"
       height="3.166398"
       x="-97.361687"
       y="120.11903"
       ry="1.583199"
       transform="rotate(-54.119072)" />
    <rect
       style="fill:#ffffff;stroke-width:0.264583"
       id="rect473-0-2"
       width="17.46174"
       height="3.166398"
       x="138.39885"
       y="53.090431"
       ry="1.583199"
       transform="rotate(45.393337)" />
    <rect
       style="fill:#ffffff;stroke-width:0.264583"
       id="rect473-62-8"
       width="17.46174"
       height="3.166398"
       x="150.75652"
       y="58.266567"
       ry="1.583199"
       transform="rotate(53.926685)" />
    <rect
       style="fill:#ffffff;stroke-width:0.264583"
       id="rect473-62-8-9"
       width="17.46174"
       height="3.166398"
       x="171.53075"
       y="29.750099"
       ry="1.583199"
       transform="rotate(53.926685)" />
    <rect
       style="fill:#ffffff;stroke-width:0.264583"
       id="rect473-61-9"
       width="17.46174"
       height="3.166398"
       x="-117.14928"
       y="125.00282"
       ry="1.583199"
       transform="rotate(-50.556219)"
       inkscape:transform-center-x="0.24166885"
       inkscape:transform-center-y="0.24512498" />
    <path
       style="fill:#00ff00;stroke-width:0.264583"
       id="path313-7"
       sodipodi:type="arc"
       sodipodi:cx="55.528023"
       sodipodi:cy="134.07045"
       sodipodi:rx="8.8671589"
       sodipodi:ry="9.0715151"
       sodipodi:start="0"
       sodipodi:end="6.063015"
       sodipodi:open="true"
       sodipodi:arc-type="arc"
       d="m 64.395182,134.07045 a 8.8671589,9.0715151 0 0 1 -8.379334,9.05778 8.8671589,9.0715151 0 0 1 -9.301309,-8.06116 8.8671589,9.0715151 0 0 1 7.355915,-9.94474 8.8671589,9.0715151 0 0 1 10.110677,6.96694" />
    <path
       style="fill:#008080;stroke-width:0.264583"
       id="path313-7-1"
       sodipodi:type="arc"
       sodipodi:cx="149.33363"
       sodipodi:cy="173.2379"
       sodipodi:rx="8.8671589"
       sodipodi:ry="9.0715151"
       sodipodi:start="0"
       sodipodi:end="6.063015"
       sodipodi:open="true"
       sodipodi:arc-type="arc"
       d="m 158.20079,173.2379 a 8.8671589,9.0715151 0 0 1 -8.37933,9.05778 8.8671589,9.0715151 0 0 1 -9.30131,-8.06116 8.8671589,9.0715151 0 0 1 7.35591,-9.94474 8.8671589,9.0715151 0 0 1 10.11068,6.96694" />
    <path
       style="fill:#008080;stroke-width:0.264583"
       id="path313-7-9"
       sodipodi:type="arc"
       sodipodi:cx="149.33363"
       sodipodi:cy="139.46532"
       sodipodi:rx="8.8671589"
       sodipodi:ry="9.0715151"
       sodipodi:start="0"
       sodipodi:end="6.063015"
       sodipodi:open="true"
       sodipodi:arc-type="arc"
       d="m 158.20079,139.46532 a 8.8671589,9.0715151 0 0 1 -8.37933,9.05777 8.8671589,9.0715151 0 0 1 -9.30131,-8.06115 8.8671589,9.0715151 0 0 1 7.35591,-9.94474 8.8671589,9.0715151 0 0 1 10.11068,6.96694" />
    <path
       style="fill:#008080;stroke-width:0.264583"
       id="path313-7-4"
       sodipodi:type="arc"
       sodipodi:cx="182.09914"
       sodipodi:cy="173.2379"
       sodipodi:rx="8.8671589"
       sodipodi:ry="9.0715151"
       sodipodi:start="0"
       sodipodi:end="6.063015"
       sodipodi:open="true"
       sodipodi:arc-type="arc"
       d="m 190.9663,173.2379 a 8.8671589,9.0715151 0 0 1 -8.37934,9.05778 8.8671589,9.0715151 0 0 1 -9.30131,-8.06116 8.8671589,9.0715151 0 0 1 7.35592,-9.94474 8.8671589,9.0715151 0 0 1 10.11067,6.96694" />
    <path
       style="fill:#008080;stroke-width:0.264583"
       id="path313-7-7"
       sodipodi:type="arc"
       sodipodi:cx="182.09914"
       sodipodi:cy="139.46532"
       sodipodi:rx="8.8671589"
       sodipodi:ry="9.0715151"
       sodipodi:start="0"
       sodipodi:end="6.063015"
       sodipodi:open="true"
       sodipodi:arc-type="arc"
       d="m 190.9663,139.46532 a 8.8671589,9.0715151 0 0 1 -8.37934,9.05777 8.8671589,9.0715151 0 0 1 -9.30131,-8.06115 8.8671589,9.0715151 0 0 1 7.35592,-9.94474 8.8671589,9.0715151 0 0 1 10.11067,6.96694" />
    <path
       style="fill:#00ff00;stroke-width:0.264583"
       id="path313-9-3"
       sodipodi:type="arc"
       sodipodi:cx="37.793709"
       sodipodi:cy="152.21349"
       sodipodi:rx="8.8671589"
       sodipodi:ry="9.0715151"
       sodipodi:start="0"
       sodipodi:end="6.063015"
       sodipodi:open="true"
       sodipodi:arc-type="arc"
       d="m 46.660868,152.21349 a 8.8671589,9.0715151 0 0 1 -8.379334,9.05777 8.8671589,9.0715151 0 0 1 -9.301309,-8.06115 8.8671589,9.0715151 0 0 1 7.355915,-9.94474 8.8671589,9.0715151 0 0 1 10.110677,6.96693" />
    <path
       style="fill:#00ff00;stroke-width:0.264583"
       id="path313-1-6"
       sodipodi:type="arc"
       sodipodi:cx="73.262337"
       sodipodi:cy="152.21349"
       sodipodi:rx="8.8671589"
       sodipodi:ry="9.0715151"
       sodipodi:start="0"
       sodipodi:end="6.063015"
       sodipodi:open="true"
       sodipodi:arc-type="arc"
       d="m 82.129496,152.21349 a 8.8671589,9.0715151 0 0 1 -8.379334,9.05777 8.8671589,9.0715151 0 0 1 -9.301309,-8.06115 8.8671589,9.0715151 0 0 1 7.355915,-9.94474 8.8671589,9.0715151 0 0 1 10.110677,6.96693" />
    <path
       style="fill:#00ff00;stroke-width:0.264583"
       id="path313-0-1"
       sodipodi:type="arc"
       sodipodi:cx="53.299339"
       sodipodi:cy="175.50037"
       sodipodi:rx="8.8671589"
       sodipodi:ry="9.0715151"
       sodipodi:start="0"
       sodipodi:end="6.063015"
       sodipodi:open="true"
       sodipodi:arc-type="arc"
       d="m 62.166498,175.50037 a 8.8671589,9.0715151 0 0 1 -8.379334,9.05777 8.8671589,9.0715151 0 0 1 -9.301308,-8.06115 8.8671589,9.0715151 0 0 1 7.355915,-9.94474 8.8671589,9.0715151 0 0 1 10.110676,6.96694" />
    <path
       style="fill:#00ff00;stroke-width:0.264583"
       id="path313-0-1-3"
       sodipodi:type="arc"
       sodipodi:cx="85.015877"
       sodipodi:cy="173.70978"
       sodipodi:rx="8.8671589"
       sodipodi:ry="9.0715151"
       sodipodi:start="0"
       sodipodi:end="6.063015"
       sodipodi:open="true"
       sodipodi:arc-type="arc"
       d="m 93.883036,173.70978 a 8.8671589,9.0715151 0 0 1 -8.379334,9.05777 8.8671589,9.0715151 0 0 1 -9.301309,-8.06115 8.8671589,9.0715151 0 0 1 7.355915,-9.94474 8.8671589,9.0715151 0 0 1 10.110677,6.96694" />
    <path
       style="fill:#00ff00;stroke-width:0.264583"
       id="path313-0-1-2"
       sodipodi:type="arc"
       sodipodi:cx="21.582804"
       sodipodi:cy="175.50037"
       sodipodi:rx="8.8671589"
       sodipodi:ry="9.0715151"
       sodipodi:start="0"
       sodipodi:end="6.063015"
       sodipodi:open="true"
       sodipodi:arc-type="arc"
       d="m 30.449963,175.50037 a 8.8671589,9.0715151 0 0 1 -8.379334,9.05777 8.8671589,9.0715151 0 0 1 -9.301309,-8.06115 8.8671589,9.0715151 0 0 1 7.355915,-9.94474 8.8671589,9.0715151 0 0 1 10.110677,6.96694" />
  </g>
</svg>
