<svg xmlns="http://www.w3.org/2000/svg" version="1.1" xmlns:xlink="http://www.w3.org/1999/xlink" xmlns:svgjs="http://svgjs.com/svgjs" width="1440" height="560" preserveAspectRatio="none" viewBox="0 0 1440 560"><g mask="url(&quot;#SvgjsMask1000&quot;)" fill="none"><rect width="1440" height="560" x="0" y="0" fill="#0e2a47"></rect><path d="M211.43 52.51L276.38 90.01L276.38 165.01L211.43 202.51L146.48 165.01L146.48 90.01zM341.34 52.51L406.29 90.01L406.29 165.01L341.34 202.51L276.38 165.01L276.38 90.01zM341.34 277.51L406.29 315.01L406.29 390.01L341.34 427.51L276.38 390.01L276.38 315.01zM341.34 502.51L406.29 540.01L406.29 615.01L341.34 652.51L276.38 615.01L276.38 540.01zM406.29 -59.99L471.25 -22.49L471.25 52.51L406.29 90.01L341.34 52.51L341.34 -22.49zM406.29 390.01L471.25 427.51L471.25 502.51L406.29 540.01L341.34 502.51L341.34 427.51zM601.15 52.51L666.11 90.01L666.11 165.01L601.15 202.51L536.2 165.01L536.2 90.01zM601.15 277.51L666.11 315.01L666.11 390.01L601.15 427.51L536.2 390.01L536.2 315.01zM666.11 -59.99L731.06 -22.49L731.06 52.51L666.11 90.01L601.15 52.51L601.15 -22.49zM731.06 52.51L796.02 90.01L796.02 165.01L731.06 202.51L666.11 165.01L666.11 90.01zM796.01 -59.99L860.97 -22.49L860.97 52.51L796.01 90.01L731.06 52.51L731.06 -22.49zM796.01 165.01L860.97 202.51L860.97 277.51L796.01 315.01L731.06 277.51L731.06 202.51zM860.97 502.51L925.92 540.01L925.92 615.01L860.97 652.51L796.01 615.01L796.01 540.01zM925.92 165.01L990.88 202.51L990.88 277.51L925.92 315.01L860.97 277.51L860.97 202.51zM990.88 277.51L1055.83 315.01L1055.83 390.01L990.88 427.51L925.92 390.01L925.92 315.01zM925.92 390.01L990.88 427.51L990.88 502.51L925.92 540.01L860.97 502.51L860.97 427.51zM1055.83 165.01L1120.78 202.51L1120.78 277.51L1055.83 315.01L990.88 277.51L990.88 202.51zM1250.69 52.51L1315.64 90.01L1315.64 165.01L1250.69 202.51L1185.74 165.01L1185.74 90.01zM1185.74 165.01L1250.69 202.51L1250.69 277.51L1185.74 315.01L1120.78 277.51L1120.78 202.51zM1250.69 277.51L1315.64 315.01L1315.64 390.01L1250.69 427.51L1185.74 390.01L1185.74 315.01zM1250.69 502.51L1315.64 540.01L1315.64 615.01L1250.69 652.51L1185.74 615.01L1185.74 540.01zM1315.64 -59.99L1380.6 -22.49L1380.6 52.51L1315.64 90.01L1250.69 52.51L1250.69 -22.49zM1315.64 390.01L1380.6 427.51L1380.6 502.51L1315.64 540.01L1250.69 502.51L1250.69 427.51zM1510.51 502.51L1575.46 540.01L1575.46 615.01L1510.51 652.51L1445.55 615.01L1445.55 540.01z" stroke="#03305d" stroke-width="2"></path><path d="M203.93 52.51 a7.5 7.5 0 1 0 15 0 a7.5 7.5 0 1 0 -15 0zM268.88 90.01 a7.5 7.5 0 1 0 15 0 a7.5 7.5 0 1 0 -15 0zM268.88 165.01 a7.5 7.5 0 1 0 15 0 a7.5 7.5 0 1 0 -15 0zM203.93 202.51 a7.5 7.5 0 1 0 15 0 a7.5 7.5 0 1 0 -15 0zM138.98 165.01 a7.5 7.5 0 1 0 15 0 a7.5 7.5 0 1 0 -15 0zM138.98 90.01 a7.5 7.5 0 1 0 15 0 a7.5 7.5 0 1 0 -15 0zM333.84 52.51 a7.5 7.5 0 1 0 15 0 a7.5 7.5 0 1 0 -15 0zM398.79 90.01 a7.5 7.5 0 1 0 15 0 a7.5 7.5 0 1 0 -15 0zM398.79 165.01 a7.5 7.5 0 1 0 15 0 a7.5 7.5 0 1 0 -15 0zM333.84 202.51 a7.5 7.5 0 1 0 15 0 a7.5 7.5 0 1 0 -15 0zM333.84 277.51 a7.5 7.5 0 1 0 15 0 a7.5 7.5 0 1 0 -15 0zM398.79 315.01 a7.5 7.5 0 1 0 15 0 a7.5 7.5 0 1 0 -15 0zM398.79 390.01 a7.5 7.5 0 1 0 15 0 a7.5 7.5 0 1 0 -15 0zM333.84 427.51 a7.5 7.5 0 1 0 15 0 a7.5 7.5 0 1 0 -15 0zM268.88 390.01 a7.5 7.5 0 1 0 15 0 a7.5 7.5 0 1 0 -15 0zM268.88 315.01 a7.5 7.5 0 1 0 15 0 a7.5 7.5 0 1 0 -15 0zM333.84 502.51 a7.5 7.5 0 1 0 15 0 a7.5 7.5 0 1 0 -15 0zM398.79 540.01 a7.5 7.5 0 1 0 15 0 a7.5 7.5 0 1 0 -15 0zM398.79 615.01 a7.5 7.5 0 1 0 15 0 a7.5 7.5 0 1 0 -15 0zM333.84 652.51 a7.5 7.5 0 1 0 15 0 a7.5 7.5 0 1 0 -15 0zM268.88 615.01 a7.5 7.5 0 1 0 15 0 a7.5 7.5 0 1 0 -15 0zM268.88 540.01 a7.5 7.5 0 1 0 15 0 a7.5 7.5 0 1 0 -15 0zM398.79 -59.99 a7.5 7.5 0 1 0 15 0 a7.5 7.5 0 1 0 -15 0zM463.75 -22.49 a7.5 7.5 0 1 0 15 0 a7.5 7.5 0 1 0 -15 0zM463.75 52.51 a7.5 7.5 0 1 0 15 0 a7.5 7.5 0 1 0 -15 0zM333.84 -22.49 a7.5 7.5 0 1 0 15 0 a7.5 7.5 0 1 0 -15 0zM463.75 427.51 a7.5 7.5 0 1 0 15 0 a7.5 7.5 0 1 0 -15 0zM463.75 502.51 a7.5 7.5 0 1 0 15 0 a7.5 7.5 0 1 0 -15 0zM593.65 52.51 a7.5 7.5 0 1 0 15 0 a7.5 7.5 0 1 0 -15 0zM658.61 90.01 a7.5 7.5 0 1 0 15 0 a7.5 7.5 0 1 0 -15 0zM658.61 165.01 a7.5 7.5 0 1 0 15 0 a7.5 7.5 0 1 0 -15 0zM593.65 202.51 a7.5 7.5 0 1 0 15 0 a7.5 7.5 0 1 0 -15 0zM528.7 165.01 a7.5 7.5 0 1 0 15 0 a7.5 7.5 0 1 0 -15 0zM528.7 90.01 a7.5 7.5 0 1 0 15 0 a7.5 7.5 0 1 0 -15 0zM593.65 277.51 a7.5 7.5 0 1 0 15 0 a7.5 7.5 0 1 0 -15 0zM658.61 315.01 a7.5 7.5 0 1 0 15 0 a7.5 7.5 0 1 0 -15 0zM658.61 390.01 a7.5 7.5 0 1 0 15 0 a7.5 7.5 0 1 0 -15 0zM593.65 427.51 a7.5 7.5 0 1 0 15 0 a7.5 7.5 0 1 0 -15 0zM528.7 390.01 a7.5 7.5 0 1 0 15 0 a7.5 7.5 0 1 0 -15 0zM528.7 315.01 a7.5 7.5 0 1 0 15 0 a7.5 7.5 0 1 0 -15 0zM658.61 -59.99 a7.5 7.5 0 1 0 15 0 a7.5 7.5 0 1 0 -15 0zM723.56 -22.49 a7.5 7.5 0 1 0 15 0 a7.5 7.5 0 1 0 -15 0zM723.56 52.51 a7.5 7.5 0 1 0 15 0 a7.5 7.5 0 1 0 -15 0zM593.65 -22.49 a7.5 7.5 0 1 0 15 0 a7.5 7.5 0 1 0 -15 0zM788.52 90.01 a7.5 7.5 0 1 0 15 0 a7.5 7.5 0 1 0 -15 0zM788.52 165.01 a7.5 7.5 0 1 0 15 0 a7.5 7.5 0 1 0 -15 0zM723.56 202.51 a7.5 7.5 0 1 0 15 0 a7.5 7.5 0 1 0 -15 0zM788.51 -59.99 a7.5 7.5 0 1 0 15 0 a7.5 7.5 0 1 0 -15 0zM853.47 -22.49 a7.5 7.5 0 1 0 15 0 a7.5 7.5 0 1 0 -15 0zM853.47 52.51 a7.5 7.5 0 1 0 15 0 a7.5 7.5 0 1 0 -15 0zM788.51 90.01 a7.5 7.5 0 1 0 15 0 a7.5 7.5 0 1 0 -15 0zM788.51 165.01 a7.5 7.5 0 1 0 15 0 a7.5 7.5 0 1 0 -15 0zM853.47 202.51 a7.5 7.5 0 1 0 15 0 a7.5 7.5 0 1 0 -15 0zM853.47 277.51 a7.5 7.5 0 1 0 15 0 a7.5 7.5 0 1 0 -15 0zM788.51 315.01 a7.5 7.5 0 1 0 15 0 a7.5 7.5 0 1 0 -15 0zM723.56 277.51 a7.5 7.5 0 1 0 15 0 a7.5 7.5 0 1 0 -15 0zM853.47 502.51 a7.5 7.5 0 1 0 15 0 a7.5 7.5 0 1 0 -15 0zM918.42 540.01 a7.5 7.5 0 1 0 15 0 a7.5 7.5 0 1 0 -15 0zM918.42 615.01 a7.5 7.5 0 1 0 15 0 a7.5 7.5 0 1 0 -15 0zM853.47 652.51 a7.5 7.5 0 1 0 15 0 a7.5 7.5 0 1 0 -15 0zM788.51 615.01 a7.5 7.5 0 1 0 15 0 a7.5 7.5 0 1 0 -15 0zM788.51 540.01 a7.5 7.5 0 1 0 15 0 a7.5 7.5 0 1 0 -15 0zM918.42 165.01 a7.5 7.5 0 1 0 15 0 a7.5 7.5 0 1 0 -15 0zM983.38 202.51 a7.5 7.5 0 1 0 15 0 a7.5 7.5 0 1 0 -15 0zM983.38 277.51 a7.5 7.5 0 1 0 15 0 a7.5 7.5 0 1 0 -15 0zM918.42 315.01 a7.5 7.5 0 1 0 15 0 a7.5 7.5 0 1 0 -15 0zM1048.33 315.01 a7.5 7.5 0 1 0 15 0 a7.5 7.5 0 1 0 -15 0zM1048.33 390.01 a7.5 7.5 0 1 0 15 0 a7.5 7.5 0 1 0 -15 0zM983.38 427.51 a7.5 7.5 0 1 0 15 0 a7.5 7.5 0 1 0 -15 0zM918.42 390.01 a7.5 7.5 0 1 0 15 0 a7.5 7.5 0 1 0 -15 0zM983.38 502.51 a7.5 7.5 0 1 0 15 0 a7.5 7.5 0 1 0 -15 0zM853.47 427.51 a7.5 7.5 0 1 0 15 0 a7.5 7.5 0 1 0 -15 0zM1048.33 165.01 a7.5 7.5 0 1 0 15 0 a7.5 7.5 0 1 0 -15 0zM1113.28 202.51 a7.5 7.5 0 1 0 15 0 a7.5 7.5 0 1 0 -15 0zM1113.28 277.51 a7.5 7.5 0 1 0 15 0 a7.5 7.5 0 1 0 -15 0zM1243.19 52.51 a7.5 7.5 0 1 0 15 0 a7.5 7.5 0 1 0 -15 0zM1308.14 90.01 a7.5 7.5 0 1 0 15 0 a7.5 7.5 0 1 0 -15 0zM1308.14 165.01 a7.5 7.5 0 1 0 15 0 a7.5 7.5 0 1 0 -15 0zM1243.19 202.51 a7.5 7.5 0 1 0 15 0 a7.5 7.5 0 1 0 -15 0zM1178.24 165.01 a7.5 7.5 0 1 0 15 0 a7.5 7.5 0 1 0 -15 0zM1178.24 90.01 a7.5 7.5 0 1 0 15 0 a7.5 7.5 0 1 0 -15 0zM1243.19 277.51 a7.5 7.5 0 1 0 15 0 a7.5 7.5 0 1 0 -15 0zM1178.24 315.01 a7.5 7.5 0 1 0 15 0 a7.5 7.5 0 1 0 -15 0zM1308.14 315.01 a7.5 7.5 0 1 0 15 0 a7.5 7.5 0 1 0 -15 0zM1308.14 390.01 a7.5 7.5 0 1 0 15 0 a7.5 7.5 0 1 0 -15 0zM1243.19 427.51 a7.5 7.5 0 1 0 15 0 a7.5 7.5 0 1 0 -15 0zM1178.24 390.01 a7.5 7.5 0 1 0 15 0 a7.5 7.5 0 1 0 -15 0zM1243.19 502.51 a7.5 7.5 0 1 0 15 0 a7.5 7.5 0 1 0 -15 0zM1308.14 540.01 a7.5 7.5 0 1 0 15 0 a7.5 7.5 0 1 0 -15 0zM1308.14 615.01 a7.5 7.5 0 1 0 15 0 a7.5 7.5 0 1 0 -15 0zM1243.19 652.51 a7.5 7.5 0 1 0 15 0 a7.5 7.5 0 1 0 -15 0zM1178.24 615.01 a7.5 7.5 0 1 0 15 0 a7.5 7.5 0 1 0 -15 0zM1178.24 540.01 a7.5 7.5 0 1 0 15 0 a7.5 7.5 0 1 0 -15 0zM1308.14 -59.99 a7.5 7.5 0 1 0 15 0 a7.5 7.5 0 1 0 -15 0zM1373.1 -22.49 a7.5 7.5 0 1 0 15 0 a7.5 7.5 0 1 0 -15 0zM1373.1 52.51 a7.5 7.5 0 1 0 15 0 a7.5 7.5 0 1 0 -15 0zM1243.19 -22.49 a7.5 7.5 0 1 0 15 0 a7.5 7.5 0 1 0 -15 0zM1373.1 427.51 a7.5 7.5 0 1 0 15 0 a7.5 7.5 0 1 0 -15 0zM1373.1 502.51 a7.5 7.5 0 1 0 15 0 a7.5 7.5 0 1 0 -15 0zM1503.01 502.51 a7.5 7.5 0 1 0 15 0 a7.5 7.5 0 1 0 -15 0zM1567.96 540.01 a7.5 7.5 0 1 0 15 0 a7.5 7.5 0 1 0 -15 0zM1567.96 615.01 a7.5 7.5 0 1 0 15 0 a7.5 7.5 0 1 0 -15 0zM1503.01 652.51 a7.5 7.5 0 1 0 15 0 a7.5 7.5 0 1 0 -15 0zM1438.05 615.01 a7.5 7.5 0 1 0 15 0 a7.5 7.5 0 1 0 -15 0zM1438.05 540.01 a7.5 7.5 0 1 0 15 0 a7.5 7.5 0 1 0 -15 0z" fill="#03305d"></path><path d="M71.1 25.79L114.41 50.79L114.41 100.79L71.1 125.79L27.8 100.79L27.8 50.79zM27.8 100.79L71.1 125.79L71.1 175.79L27.8 200.79L-15.5 175.79L-15.5 125.79zM27.8 250.79L71.1 275.79L71.1 325.79L27.8 350.79L-15.5 325.79L-15.5 275.79zM27.8 400.79L71.1 425.79L71.1 475.79L27.8 500.79L-15.5 475.79L-15.5 425.79zM71.1 475.79L114.41 500.79L114.41 550.79L71.1 575.79L27.8 550.79L27.8 500.79zM114.41 -49.21L157.71 -24.21L157.71 25.79L114.41 50.79L71.1 25.79L71.1 -24.21zM157.71 25.79L201.01 50.79L201.01 100.79L157.71 125.79L114.41 100.79L114.41 50.79zM157.71 175.79L201.01 200.79L201.01 250.79L157.71 275.79L114.41 250.79L114.41 200.79zM114.41 250.79L157.71 275.79L157.71 325.79L114.41 350.79L71.1 325.79L71.1 275.79zM114.41 400.79L157.71 425.79L157.71 475.79L114.41 500.79L71.1 475.79L71.1 425.79zM201.01 100.79L244.31 125.79L244.31 175.79L201.01 200.79L157.71 175.79L157.71 125.79zM244.31 325.79L287.62 350.79L287.62 400.79L244.31 425.79L201.01 400.79L201.01 350.79zM330.92 25.79L374.22 50.79L374.22 100.79L330.92 125.79L287.62 100.79L287.62 50.79zM287.62 100.79L330.92 125.79L330.92 175.79L287.62 200.79L244.31 175.79L244.31 125.79zM330.92 175.79L374.22 200.79L374.22 250.79L330.92 275.79L287.62 250.79L287.62 200.79zM287.62 250.79L330.92 275.79L330.92 325.79L287.62 350.79L244.31 325.79L244.31 275.79zM287.62 400.79L330.92 425.79L330.92 475.79L287.62 500.79L244.31 475.79L244.31 425.79zM330.92 475.79L374.22 500.79L374.22 550.79L330.92 575.79L287.62 550.79L287.62 500.79zM417.52 25.79L460.83 50.79L460.83 100.79L417.52 125.79L374.22 100.79L374.22 50.79zM417.52 175.79L460.83 200.79L460.83 250.79L417.52 275.79L374.22 250.79L374.22 200.79zM417.52 475.79L460.83 500.79L460.83 550.79L417.52 575.79L374.22 550.79L374.22 500.79zM460.83 100.79L504.13 125.79L504.13 175.79L460.83 200.79L417.52 175.79L417.52 125.79zM460.83 250.79L504.13 275.79L504.13 325.79L460.83 350.79L417.52 325.79L417.52 275.79zM460.83 400.79L504.13 425.79L504.13 475.79L460.83 500.79L417.52 475.79L417.52 425.79zM547.43 -49.21L590.73 -24.21L590.73 25.79L547.43 50.79L504.13 25.79L504.13 -24.21zM547.43 100.79L590.73 125.79L590.73 175.79L547.43 200.79L504.13 175.79L504.13 125.79zM590.73 175.79L634.03 200.79L634.03 250.79L590.73 275.79L547.43 250.79L547.43 200.79zM590.73 325.79L634.03 350.79L634.03 400.79L590.73 425.79L547.43 400.79L547.43 350.79zM677.34 25.79L720.64 50.79L720.64 100.79L677.34 125.79L634.03 100.79L634.03 50.79zM634.03 250.79L677.34 275.79L677.34 325.79L634.03 350.79L590.73 325.79L590.73 275.79zM677.34 325.79L720.64 350.79L720.64 400.79L677.34 425.79L634.03 400.79L634.03 350.79zM634.03 400.79L677.34 425.79L677.34 475.79L634.03 500.79L590.73 475.79L590.73 425.79zM677.34 475.79L720.64 500.79L720.64 550.79L677.34 575.79L634.03 550.79L634.03 500.79zM763.94 25.79L807.25 50.79L807.25 100.79L763.94 125.79L720.64 100.79L720.64 50.79zM720.64 100.79L763.94 125.79L763.94 175.79L720.64 200.79L677.34 175.79L677.34 125.79zM720.64 250.79L763.94 275.79L763.94 325.79L720.64 350.79L677.34 325.79L677.34 275.79zM763.94 325.79L807.25 350.79L807.25 400.79L763.94 425.79L720.64 400.79L720.64 350.79zM807.25 -49.21L850.55 -24.21L850.55 25.79L807.25 50.79L763.94 25.79L763.94 -24.21zM807.25 250.79L850.55 275.79L850.55 325.79L807.25 350.79L763.94 325.79L763.94 275.79zM850.55 325.79L893.85 350.79L893.85 400.79L850.55 425.79L807.25 400.79L807.25 350.79zM807.25 400.79L850.55 425.79L850.55 475.79L807.25 500.79L763.94 475.79L763.94 425.79zM850.55 475.79L893.85 500.79L893.85 550.79L850.55 575.79L807.25 550.79L807.25 500.79zM893.85 -49.21L937.15 -24.21L937.15 25.79L893.85 50.79L850.55 25.79L850.55 -24.21zM893.85 100.79L937.15 125.79L937.15 175.79L893.85 200.79L850.55 175.79L850.55 125.79zM937.15 325.79L980.46 350.79L980.46 400.79L937.15 425.79L893.85 400.79L893.85 350.79zM1023.76 25.79L1067.06 50.79L1067.06 100.79L1023.76 125.79L980.46 100.79L980.46 50.79zM1023.76 175.79L1067.06 200.79L1067.06 250.79L1023.76 275.79L980.46 250.79L980.46 200.79zM980.46 250.79L1023.76 275.79L1023.76 325.79L980.46 350.79L937.15 325.79L937.15 275.79zM1067.06 -49.21L1110.36 -24.21L1110.36 25.79L1067.06 50.79L1023.76 25.79L1023.76 -24.21zM1110.36 25.79L1153.66 50.79L1153.66 100.79L1110.36 125.79L1067.06 100.79L1067.06 50.79zM1067.06 100.79L1110.36 125.79L1110.36 175.79L1067.06 200.79L1023.76 175.79L1023.76 125.79zM1110.36 175.79L1153.66 200.79L1153.66 250.79L1110.36 275.79L1067.06 250.79L1067.06 200.79zM1067.06 250.79L1110.36 275.79L1110.36 325.79L1067.06 350.79L1023.76 325.79L1023.76 275.79zM1110.36 325.79L1153.66 350.79L1153.66 400.79L1110.36 425.79L1067.06 400.79L1067.06 350.79zM1110.36 475.79L1153.66 500.79L1153.66 550.79L1110.36 575.79L1067.06 550.79L1067.06 500.79zM1153.66 100.79L1196.97 125.79L1196.97 175.79L1153.66 200.79L1110.36 175.79L1110.36 125.79zM1153.66 250.79L1196.97 275.79L1196.97 325.79L1153.66 350.79L1110.36 325.79L1110.36 275.79zM1153.66 400.79L1196.97 425.79L1196.97 475.79L1153.66 500.79L1110.36 475.79L1110.36 425.79zM1283.57 25.79L1326.88 50.79L1326.88 100.79L1283.57 125.79L1240.27 100.79L1240.27 50.79zM1240.27 100.79L1283.57 125.79L1283.57 175.79L1240.27 200.79L1196.97 175.79L1196.97 125.79zM1283.57 175.79L1326.88 200.79L1326.88 250.79L1283.57 275.79L1240.27 250.79L1240.27 200.79zM1240.27 250.79L1283.57 275.79L1283.57 325.79L1240.27 350.79L1196.97 325.79L1196.97 275.79zM1370.18 325.79L1413.48 350.79L1413.48 400.79L1370.18 425.79L1326.88 400.79L1326.88 350.79zM1326.88 400.79L1370.18 425.79L1370.18 475.79L1326.88 500.79L1283.57 475.79L1283.57 425.79zM1413.48 -49.21L1456.78 -24.21L1456.78 25.79L1413.48 50.79L1370.18 25.79L1370.18 -24.21zM1456.78 25.79L1500.09 50.79L1500.09 100.79L1456.78 125.79L1413.48 100.79L1413.48 50.79zM1456.78 175.79L1500.09 200.79L1500.09 250.79L1456.78 275.79L1413.48 250.79L1413.48 200.79zM1413.48 400.79L1456.78 425.79L1456.78 475.79L1413.48 500.79L1370.18 475.79L1370.18 425.79z" stroke="rgba(6, 80, 156, 0.93)" stroke-width="2"></path></g><defs><mask id="SvgjsMask1000"><rect width="1440" height="560" fill="#ffffff"></rect></mask></defs></svg>