<svg xmlns="http://www.w3.org/2000/svg" version="1.1" xmlns:xlink="http://www.w3.org/1999/xlink" xmlns:svgjs="http://svgjs.com/svgjs" width="1440" height="560" preserveAspectRatio="none" viewBox="0 0 1440 560"><g mask="url(&quot;#SvgjsMask1001&quot;)" fill="none"><path d="M217.58 93.53L282.53 131.03L282.53 206.03L217.58 243.53L152.63 206.03L152.63 131.03zM152.63 431.03L217.58 468.53L217.58 543.53L152.63 581.03L87.67 543.53L87.67 468.53zM347.49 318.53L412.44 356.03L412.44 431.03L347.49 468.53L282.53 431.03L282.53 356.03zM412.44 206.03L477.4 243.53L477.4 318.53L412.44 356.03L347.49 318.53L347.49 243.53zM542.35 206.03L607.3 243.53L607.3 318.53L542.35 356.03L477.4 318.53L477.4 243.53zM607.3 318.53L672.26 356.03L672.26 431.03L607.3 468.53L542.35 431.03L542.35 356.03zM542.35 431.03L607.3 468.53L607.3 543.53L542.35 581.03L477.4 543.53L477.4 468.53zM737.21 543.53L802.17 581.03L802.17 656.03L737.21 693.53L672.26 656.03L672.26 581.03zM997.03 318.53L1061.98 356.03L1061.98 431.03L997.03 468.53L932.07 431.03L932.07 356.03zM1061.98 431.03L1126.93 468.53L1126.93 543.53L1061.98 581.03L997.03 543.53L997.03 468.53zM1321.8 -18.97L1386.75 18.53L1386.75 93.53L1321.8 131.03L1256.84 93.53L1256.84 18.53z" stroke="#03305d" stroke-width="2"></path><path d="M210.08 93.53 a7.5 7.5 0 1 0 15 0 a7.5 7.5 0 1 0 -15 0zM275.03 131.03 a7.5 7.5 0 1 0 15 0 a7.5 7.5 0 1 0 -15 0zM275.03 206.03 a7.5 7.5 0 1 0 15 0 a7.5 7.5 0 1 0 -15 0zM210.08 243.53 a7.5 7.5 0 1 0 15 0 a7.5 7.5 0 1 0 -15 0zM145.13 206.03 a7.5 7.5 0 1 0 15 0 a7.5 7.5 0 1 0 -15 0zM145.13 131.03 a7.5 7.5 0 1 0 15 0 a7.5 7.5 0 1 0 -15 0zM145.13 431.03 a7.5 7.5 0 1 0 15 0 a7.5 7.5 0 1 0 -15 0zM210.08 468.53 a7.5 7.5 0 1 0 15 0 a7.5 7.5 0 1 0 -15 0zM210.08 543.53 a7.5 7.5 0 1 0 15 0 a7.5 7.5 0 1 0 -15 0zM145.13 581.03 a7.5 7.5 0 1 0 15 0 a7.5 7.5 0 1 0 -15 0zM80.17 543.53 a7.5 7.5 0 1 0 15 0 a7.5 7.5 0 1 0 -15 0zM80.17 468.53 a7.5 7.5 0 1 0 15 0 a7.5 7.5 0 1 0 -15 0zM339.99 318.53 a7.5 7.5 0 1 0 15 0 a7.5 7.5 0 1 0 -15 0zM404.94 356.03 a7.5 7.5 0 1 0 15 0 a7.5 7.5 0 1 0 -15 0zM404.94 431.03 a7.5 7.5 0 1 0 15 0 a7.5 7.5 0 1 0 -15 0zM339.99 468.53 a7.5 7.5 0 1 0 15 0 a7.5 7.5 0 1 0 -15 0zM275.03 431.03 a7.5 7.5 0 1 0 15 0 a7.5 7.5 0 1 0 -15 0zM275.03 356.03 a7.5 7.5 0 1 0 15 0 a7.5 7.5 0 1 0 -15 0zM404.94 206.03 a7.5 7.5 0 1 0 15 0 a7.5 7.5 0 1 0 -15 0zM469.9 243.53 a7.5 7.5 0 1 0 15 0 a7.5 7.5 0 1 0 -15 0zM469.9 318.53 a7.5 7.5 0 1 0 15 0 a7.5 7.5 0 1 0 -15 0zM339.99 243.53 a7.5 7.5 0 1 0 15 0 a7.5 7.5 0 1 0 -15 0zM534.85 206.03 a7.5 7.5 0 1 0 15 0 a7.5 7.5 0 1 0 -15 0zM599.8 243.53 a7.5 7.5 0 1 0 15 0 a7.5 7.5 0 1 0 -15 0zM599.8 318.53 a7.5 7.5 0 1 0 15 0 a7.5 7.5 0 1 0 -15 0zM534.85 356.03 a7.5 7.5 0 1 0 15 0 a7.5 7.5 0 1 0 -15 0zM664.76 356.03 a7.5 7.5 0 1 0 15 0 a7.5 7.5 0 1 0 -15 0zM664.76 431.03 a7.5 7.5 0 1 0 15 0 a7.5 7.5 0 1 0 -15 0zM599.8 468.53 a7.5 7.5 0 1 0 15 0 a7.5 7.5 0 1 0 -15 0zM534.85 431.03 a7.5 7.5 0 1 0 15 0 a7.5 7.5 0 1 0 -15 0zM599.8 543.53 a7.5 7.5 0 1 0 15 0 a7.5 7.5 0 1 0 -15 0zM534.85 581.03 a7.5 7.5 0 1 0 15 0 a7.5 7.5 0 1 0 -15 0zM469.9 543.53 a7.5 7.5 0 1 0 15 0 a7.5 7.5 0 1 0 -15 0zM469.9 468.53 a7.5 7.5 0 1 0 15 0 a7.5 7.5 0 1 0 -15 0zM729.71 543.53 a7.5 7.5 0 1 0 15 0 a7.5 7.5 0 1 0 -15 0zM794.67 581.03 a7.5 7.5 0 1 0 15 0 a7.5 7.5 0 1 0 -15 0zM794.67 656.03 a7.5 7.5 0 1 0 15 0 a7.5 7.5 0 1 0 -15 0zM729.71 693.53 a7.5 7.5 0 1 0 15 0 a7.5 7.5 0 1 0 -15 0zM664.76 656.03 a7.5 7.5 0 1 0 15 0 a7.5 7.5 0 1 0 -15 0zM664.76 581.03 a7.5 7.5 0 1 0 15 0 a7.5 7.5 0 1 0 -15 0zM989.53 318.53 a7.5 7.5 0 1 0 15 0 a7.5 7.5 0 1 0 -15 0zM1054.48 356.03 a7.5 7.5 0 1 0 15 0 a7.5 7.5 0 1 0 -15 0zM1054.48 431.03 a7.5 7.5 0 1 0 15 0 a7.5 7.5 0 1 0 -15 0zM989.53 468.53 a7.5 7.5 0 1 0 15 0 a7.5 7.5 0 1 0 -15 0zM924.57 431.03 a7.5 7.5 0 1 0 15 0 a7.5 7.5 0 1 0 -15 0zM924.57 356.03 a7.5 7.5 0 1 0 15 0 a7.5 7.5 0 1 0 -15 0zM1119.43 468.53 a7.5 7.5 0 1 0 15 0 a7.5 7.5 0 1 0 -15 0zM1119.43 543.53 a7.5 7.5 0 1 0 15 0 a7.5 7.5 0 1 0 -15 0zM1054.48 581.03 a7.5 7.5 0 1 0 15 0 a7.5 7.5 0 1 0 -15 0zM989.53 543.53 a7.5 7.5 0 1 0 15 0 a7.5 7.5 0 1 0 -15 0zM1314.3 -18.97 a7.5 7.5 0 1 0 15 0 a7.5 7.5 0 1 0 -15 0zM1379.25 18.53 a7.5 7.5 0 1 0 15 0 a7.5 7.5 0 1 0 -15 0zM1379.25 93.53 a7.5 7.5 0 1 0 15 0 a7.5 7.5 0 1 0 -15 0zM1314.3 131.03 a7.5 7.5 0 1 0 15 0 a7.5 7.5 0 1 0 -15 0zM1249.34 93.53 a7.5 7.5 0 1 0 15 0 a7.5 7.5 0 1 0 -15 0zM1249.34 18.53 a7.5 7.5 0 1 0 15 0 a7.5 7.5 0 1 0 -15 0z" fill="#03305d"></path><path d="M21.33 279.17L64.63 304.17L64.63 354.17L21.33 379.17L-21.97 354.17L-21.97 304.17zM107.94 -20.83L151.24 4.17L151.24 54.17L107.94 79.17L64.63 54.17L64.63 4.17zM107.94 429.17L151.24 454.17L151.24 504.17L107.94 529.17L64.63 504.17L64.63 454.17zM237.84 354.17L281.14 379.17L281.14 429.17L237.84 454.17L194.54 429.17L194.54 379.17zM324.45 204.17L367.75 229.17L367.75 279.17L324.45 304.17L281.14 279.17L281.14 229.17zM324.45 504.17L367.75 529.17L367.75 579.17L324.45 604.17L281.14 579.17L281.14 529.17zM367.75 -20.83L411.05 4.17L411.05 54.17L367.75 79.17L324.45 54.17L324.45 4.17zM411.05 354.17L454.36 379.17L454.36 429.17L411.05 454.17L367.75 429.17L367.75 379.17zM497.66 204.17L540.96 229.17L540.96 279.17L497.66 304.17L454.36 279.17L454.36 229.17zM454.36 279.17L497.66 304.17L497.66 354.17L454.36 379.17L411.05 354.17L411.05 304.17zM670.87 204.17L714.17 229.17L714.17 279.17L670.87 304.17L627.57 279.17L627.57 229.17zM627.57 279.17L670.87 304.17L670.87 354.17L627.57 379.17L584.26 354.17L584.26 304.17zM670.87 504.17L714.17 529.17L714.17 579.17L670.87 604.17L627.57 579.17L627.57 529.17zM714.17 429.17L757.47 454.17L757.47 504.17L714.17 529.17L670.87 504.17L670.87 454.17zM800.78 129.17L844.08 154.17L844.08 204.17L800.78 229.17L757.47 204.17L757.47 154.17zM887.38 279.17L930.68 304.17L930.68 354.17L887.38 379.17L844.08 354.17L844.08 304.17zM930.68 354.17L973.99 379.17L973.99 429.17L930.68 454.17L887.38 429.17L887.38 379.17zM930.68 504.17L973.99 529.17L973.99 579.17L930.68 604.17L887.38 579.17L887.38 529.17zM973.99 -20.83L1017.29 4.17L1017.29 54.17L973.99 79.17L930.68 54.17L930.68 4.17zM973.99 279.17L1017.29 304.17L1017.29 354.17L973.99 379.17L930.68 354.17L930.68 304.17zM1017.29 354.17L1060.59 379.17L1060.59 429.17L1017.29 454.17L973.99 429.17L973.99 379.17zM1103.89 54.17L1147.19 79.17L1147.19 129.17L1103.89 154.17L1060.59 129.17L1060.59 79.17zM1060.59 129.17L1103.89 154.17L1103.89 204.17L1060.59 229.17L1017.29 204.17L1017.29 154.17zM1147.19 279.17L1190.5 304.17L1190.5 354.17L1147.19 379.17L1103.89 354.17L1103.89 304.17zM1233.8 -20.83L1277.1 4.17L1277.1 54.17L1233.8 79.17L1190.5 54.17L1190.5 4.17zM1277.1 54.17L1320.4 79.17L1320.4 129.17L1277.1 154.17L1233.8 129.17L1233.8 79.17zM1277.1 354.17L1320.4 379.17L1320.4 429.17L1277.1 454.17L1233.8 429.17L1233.8 379.17zM1233.8 429.17L1277.1 454.17L1277.1 504.17L1233.8 529.17L1190.5 504.17L1190.5 454.17zM1363.71 204.17L1407.01 229.17L1407.01 279.17L1363.71 304.17L1320.4 279.17L1320.4 229.17zM1407.01 -20.83L1450.31 4.17L1450.31 54.17L1407.01 79.17L1363.71 54.17L1363.71 4.17zM1450.31 204.17L1493.62 229.17L1493.62 279.17L1450.31 304.17L1407.01 279.17L1407.01 229.17zM1407.01 279.17L1450.31 304.17L1450.31 354.17L1407.01 379.17L1363.71 354.17L1363.71 304.17z" stroke="rgba(6, 80, 156, 0.93)" stroke-width="2"></path></g><defs><mask id="SvgjsMask1001"><rect width="1440" height="560" fill="#ffffff"></rect></mask></defs></svg>