<svg xmlns="http://www.w3.org/2000/svg" version="1.1" xmlns:xlink="http://www.w3.org/1999/xlink" xmlns:svgjs="http://svgjs.com/svgjs" width="1440" height="560" preserveAspectRatio="none" viewBox="0 0 1440 560"><g mask="url(&quot;#SvgjsMask1000&quot;)" fill="none"><rect width="1440" height="560" x="0" y="0" fill="#0e2a47"></rect><path d="M72.71 55.73L137.67 93.23L137.67 168.23L72.71 205.73L7.76 168.23L7.76 93.23zM202.62 280.73L267.57 318.23L267.57 393.23L202.62 430.73L137.67 393.23L137.67 318.23zM332.53 280.73L397.48 318.23L397.48 393.23L332.53 430.73L267.57 393.23L267.57 318.23zM267.57 393.23L332.53 430.73L332.53 505.73L267.57 543.23L202.62 505.73L202.62 430.73zM527.39 168.23L592.34 205.73L592.34 280.73L527.39 318.23L462.44 280.73L462.44 205.73zM722.25 280.73L787.21 318.23L787.21 393.23L722.25 430.73L657.3 393.23L657.3 318.23zM722.25 505.73L787.21 543.23L787.21 618.23L722.25 655.73L657.3 618.23L657.3 543.23zM787.2 -56.77L852.16 -19.27L852.16 55.73L787.2 93.23L722.25 55.73L722.25 -19.27zM852.16 55.73L917.11 93.23L917.11 168.23L852.16 205.73L787.2 168.23L787.2 93.23zM917.11 -56.77L982.07 -19.27L982.07 55.73L917.11 93.23L852.16 55.73L852.16 -19.27zM982.07 280.73L1047.02 318.23L1047.02 393.23L982.07 430.73L917.11 393.23L917.11 318.23zM1306.84 -56.77L1371.79 -19.27L1371.79 55.73L1306.84 93.23L1241.88 55.73L1241.88 -19.27zM1371.79 55.73L1436.74 93.23L1436.74 168.23L1371.79 205.73L1306.84 168.23L1306.84 93.23z" stroke="#03305d" stroke-width="2"></path><path d="M65.21 55.73 a7.5 7.5 0 1 0 15 0 a7.5 7.5 0 1 0 -15 0zM130.17 93.23 a7.5 7.5 0 1 0 15 0 a7.5 7.5 0 1 0 -15 0zM130.17 168.23 a7.5 7.5 0 1 0 15 0 a7.5 7.5 0 1 0 -15 0zM65.21 205.73 a7.5 7.5 0 1 0 15 0 a7.5 7.5 0 1 0 -15 0zM0.26 168.23 a7.5 7.5 0 1 0 15 0 a7.5 7.5 0 1 0 -15 0zM0.26 93.23 a7.5 7.5 0 1 0 15 0 a7.5 7.5 0 1 0 -15 0zM195.12 280.73 a7.5 7.5 0 1 0 15 0 a7.5 7.5 0 1 0 -15 0zM260.07 318.23 a7.5 7.5 0 1 0 15 0 a7.5 7.5 0 1 0 -15 0zM260.07 393.23 a7.5 7.5 0 1 0 15 0 a7.5 7.5 0 1 0 -15 0zM195.12 430.73 a7.5 7.5 0 1 0 15 0 a7.5 7.5 0 1 0 -15 0zM130.17 393.23 a7.5 7.5 0 1 0 15 0 a7.5 7.5 0 1 0 -15 0zM130.17 318.23 a7.5 7.5 0 1 0 15 0 a7.5 7.5 0 1 0 -15 0zM325.03 280.73 a7.5 7.5 0 1 0 15 0 a7.5 7.5 0 1 0 -15 0zM389.98 318.23 a7.5 7.5 0 1 0 15 0 a7.5 7.5 0 1 0 -15 0zM389.98 393.23 a7.5 7.5 0 1 0 15 0 a7.5 7.5 0 1 0 -15 0zM325.03 430.73 a7.5 7.5 0 1 0 15 0 a7.5 7.5 0 1 0 -15 0zM325.03 505.73 a7.5 7.5 0 1 0 15 0 a7.5 7.5 0 1 0 -15 0zM260.07 543.23 a7.5 7.5 0 1 0 15 0 a7.5 7.5 0 1 0 -15 0zM195.12 505.73 a7.5 7.5 0 1 0 15 0 a7.5 7.5 0 1 0 -15 0zM519.89 168.23 a7.5 7.5 0 1 0 15 0 a7.5 7.5 0 1 0 -15 0zM584.84 205.73 a7.5 7.5 0 1 0 15 0 a7.5 7.5 0 1 0 -15 0zM584.84 280.73 a7.5 7.5 0 1 0 15 0 a7.5 7.5 0 1 0 -15 0zM519.89 318.23 a7.5 7.5 0 1 0 15 0 a7.5 7.5 0 1 0 -15 0zM454.94 280.73 a7.5 7.5 0 1 0 15 0 a7.5 7.5 0 1 0 -15 0zM454.94 205.73 a7.5 7.5 0 1 0 15 0 a7.5 7.5 0 1 0 -15 0zM714.75 280.73 a7.5 7.5 0 1 0 15 0 a7.5 7.5 0 1 0 -15 0zM779.71 318.23 a7.5 7.5 0 1 0 15 0 a7.5 7.5 0 1 0 -15 0zM779.71 393.23 a7.5 7.5 0 1 0 15 0 a7.5 7.5 0 1 0 -15 0zM714.75 430.73 a7.5 7.5 0 1 0 15 0 a7.5 7.5 0 1 0 -15 0zM649.8 393.23 a7.5 7.5 0 1 0 15 0 a7.5 7.5 0 1 0 -15 0zM649.8 318.23 a7.5 7.5 0 1 0 15 0 a7.5 7.5 0 1 0 -15 0zM714.75 505.73 a7.5 7.5 0 1 0 15 0 a7.5 7.5 0 1 0 -15 0zM779.71 543.23 a7.5 7.5 0 1 0 15 0 a7.5 7.5 0 1 0 -15 0zM779.71 618.23 a7.5 7.5 0 1 0 15 0 a7.5 7.5 0 1 0 -15 0zM714.75 655.73 a7.5 7.5 0 1 0 15 0 a7.5 7.5 0 1 0 -15 0zM649.8 618.23 a7.5 7.5 0 1 0 15 0 a7.5 7.5 0 1 0 -15 0zM649.8 543.23 a7.5 7.5 0 1 0 15 0 a7.5 7.5 0 1 0 -15 0zM779.7 -56.77 a7.5 7.5 0 1 0 15 0 a7.5 7.5 0 1 0 -15 0zM844.66 -19.27 a7.5 7.5 0 1 0 15 0 a7.5 7.5 0 1 0 -15 0zM844.66 55.73 a7.5 7.5 0 1 0 15 0 a7.5 7.5 0 1 0 -15 0zM779.7 93.23 a7.5 7.5 0 1 0 15 0 a7.5 7.5 0 1 0 -15 0zM714.75 55.73 a7.5 7.5 0 1 0 15 0 a7.5 7.5 0 1 0 -15 0zM714.75 -19.27 a7.5 7.5 0 1 0 15 0 a7.5 7.5 0 1 0 -15 0zM909.61 93.23 a7.5 7.5 0 1 0 15 0 a7.5 7.5 0 1 0 -15 0zM909.61 168.23 a7.5 7.5 0 1 0 15 0 a7.5 7.5 0 1 0 -15 0zM844.66 205.73 a7.5 7.5 0 1 0 15 0 a7.5 7.5 0 1 0 -15 0zM779.7 168.23 a7.5 7.5 0 1 0 15 0 a7.5 7.5 0 1 0 -15 0zM909.61 -56.77 a7.5 7.5 0 1 0 15 0 a7.5 7.5 0 1 0 -15 0zM974.57 -19.27 a7.5 7.5 0 1 0 15 0 a7.5 7.5 0 1 0 -15 0zM974.57 55.73 a7.5 7.5 0 1 0 15 0 a7.5 7.5 0 1 0 -15 0zM974.57 280.73 a7.5 7.5 0 1 0 15 0 a7.5 7.5 0 1 0 -15 0zM1039.52 318.23 a7.5 7.5 0 1 0 15 0 a7.5 7.5 0 1 0 -15 0zM1039.52 393.23 a7.5 7.5 0 1 0 15 0 a7.5 7.5 0 1 0 -15 0zM974.57 430.73 a7.5 7.5 0 1 0 15 0 a7.5 7.5 0 1 0 -15 0zM909.61 393.23 a7.5 7.5 0 1 0 15 0 a7.5 7.5 0 1 0 -15 0zM909.61 318.23 a7.5 7.5 0 1 0 15 0 a7.5 7.5 0 1 0 -15 0zM1299.34 -56.77 a7.5 7.5 0 1 0 15 0 a7.5 7.5 0 1 0 -15 0zM1364.29 -19.27 a7.5 7.5 0 1 0 15 0 a7.5 7.5 0 1 0 -15 0zM1364.29 55.73 a7.5 7.5 0 1 0 15 0 a7.5 7.5 0 1 0 -15 0zM1299.34 93.23 a7.5 7.5 0 1 0 15 0 a7.5 7.5 0 1 0 -15 0zM1234.38 55.73 a7.5 7.5 0 1 0 15 0 a7.5 7.5 0 1 0 -15 0zM1234.38 -19.27 a7.5 7.5 0 1 0 15 0 a7.5 7.5 0 1 0 -15 0zM1429.24 93.23 a7.5 7.5 0 1 0 15 0 a7.5 7.5 0 1 0 -15 0zM1429.24 168.23 a7.5 7.5 0 1 0 15 0 a7.5 7.5 0 1 0 -15 0zM1364.29 205.73 a7.5 7.5 0 1 0 15 0 a7.5 7.5 0 1 0 -15 0zM1299.34 168.23 a7.5 7.5 0 1 0 15 0 a7.5 7.5 0 1 0 -15 0z" fill="#03305d"></path><path d="M53.18 209.83L96.48 234.83L96.48 284.83L53.18 309.83L9.88 284.83L9.88 234.83zM139.79 59.83L183.09 84.83L183.09 134.83L139.79 159.83L96.48 134.83L96.48 84.83zM139.79 359.83L183.09 384.83L183.09 434.83L139.79 459.83L96.48 434.83L96.48 384.83zM183.09 134.83L226.39 159.83L226.39 209.83L183.09 234.83L139.79 209.83L139.79 159.83zM183.09 284.83L226.39 309.83L226.39 359.83L183.09 384.83L139.79 359.83L139.79 309.83zM226.39 359.83L269.69 384.83L269.69 434.83L226.39 459.83L183.09 434.83L183.09 384.83zM313 59.83L356.3 84.83L356.3 134.83L313 159.83L269.69 134.83L269.69 84.83zM269.69 284.83L313 309.83L313 359.83L269.69 384.83L226.39 359.83L226.39 309.83zM356.3 134.83L399.6 159.83L399.6 209.83L356.3 234.83L313 209.83L313 159.83zM399.6 359.83L442.91 384.83L442.91 434.83L399.6 459.83L356.3 434.83L356.3 384.83zM486.21 209.83L529.51 234.83L529.51 284.83L486.21 309.83L442.91 284.83L442.91 234.83zM486.21 359.83L529.51 384.83L529.51 434.83L486.21 459.83L442.91 434.83L442.91 384.83zM442.91 434.83L486.21 459.83L486.21 509.83L442.91 534.83L399.6 509.83L399.6 459.83zM529.51 284.83L572.81 309.83L572.81 359.83L529.51 384.83L486.21 359.83L486.21 309.83zM572.81 359.83L616.12 384.83L616.12 434.83L572.81 459.83L529.51 434.83L529.51 384.83zM659.42 209.83L702.72 234.83L702.72 284.83L659.42 309.83L616.12 284.83L616.12 234.83zM659.42 359.83L702.72 384.83L702.72 434.83L659.42 459.83L616.12 434.83L616.12 384.83zM702.72 284.83L746.02 309.83L746.02 359.83L702.72 384.83L659.42 359.83L659.42 309.83zM832.63 59.83L875.93 84.83L875.93 134.83L832.63 159.83L789.33 134.83L789.33 84.83zM875.93 134.83L919.23 159.83L919.23 209.83L875.93 234.83L832.63 209.83L832.63 159.83zM1005.84 209.83L1049.14 234.83L1049.14 284.83L1005.84 309.83L962.54 284.83L962.54 234.83zM1049.14 434.83L1092.44 459.83L1092.44 509.83L1049.14 534.83L1005.84 509.83L1005.84 459.83zM1135.75 134.83L1179.05 159.83L1179.05 209.83L1135.75 234.83L1092.44 209.83L1092.44 159.83zM1265.65 209.83L1308.96 234.83L1308.96 284.83L1265.65 309.83L1222.35 284.83L1222.35 234.83zM1438.86 509.83L1482.17 534.83L1482.17 584.83L1438.86 609.83L1395.56 584.83L1395.56 534.83z" stroke="rgba(6, 80, 156, 0.93)" stroke-width="2"></path></g><defs><mask id="SvgjsMask1000"><rect width="1440" height="560" fill="#ffffff"></rect></mask></defs></svg>