<svg xmlns="http://www.w3.org/2000/svg" version="1.1" xmlns:xlink="http://www.w3.org/1999/xlink" xmlns:svgjs="http://svgjs.com/svgjs" width="1440" height="250" preserveAspectRatio="none" viewBox="0 0 1440 250"><g mask="url(&quot;#SvgjsMask1003&quot;)" fill="none"><path d="M29 250L279 0L499.5 0L249.5 250z" fill="url(#SvgjsLinearGradient1004)"></path><path d="M256.6 250L506.6 0L656.6 0L406.6 250z" fill="url(#SvgjsLinearGradient1004)"></path><path d="M513.2 250L763.2 0L1057.2 0L807.2 250z" fill="url(#SvgjsLinearGradient1004)"></path><path d="M738.8000000000001 250L988.8000000000001 0L1153.8000000000002 0L903.8000000000001 250z" fill="url(#SvgjsLinearGradient1004)"></path><path d="M1419 250L1169 0L1079 0L1329 250z" fill="url(#SvgjsLinearGradient1005)"></path><path d="M1198.4 250L948.4000000000001 0L664.9000000000001 0L914.9000000000001 250z" fill="url(#SvgjsLinearGradient1005)"></path><path d="M928.8 250L678.8 0L366.79999999999995 0L616.8 250z" fill="url(#SvgjsLinearGradient1005)"></path><path d="M713.1999999999999 250L463.19999999999993 0L121.19999999999993 0L371.19999999999993 250z" fill="url(#SvgjsLinearGradient1005)"></path><path d="M1269.41036179415 250L1440 79.41036179415002L1440 250z" fill="url(#SvgjsLinearGradient1004)"></path><path d="M0 250L170.58963820584998 250L 0 79.41036179415002z" fill="url(#SvgjsLinearGradient1005)"></path></g><defs><mask id="SvgjsMask1003"><rect width="1440" height="250" fill="#ffffff"></rect></mask><linearGradient x1="0%" y1="100%" x2="100%" y2="0%" id="SvgjsLinearGradient1004"><stop stop-color="rgba(15, 70, 185, 0.2)" offset="0"></stop><stop stop-opacity="0" stop-color="rgba(15, 70, 185, 0.2)" offset="0.66"></stop></linearGradient><linearGradient x1="100%" y1="100%" x2="0%" y2="0%" id="SvgjsLinearGradient1005"><stop stop-color="rgba(15, 70, 185, 0.2)" offset="0"></stop><stop stop-opacity="0" stop-color="rgba(15, 70, 185, 0.2)" offset="0.66"></stop></linearGradient></defs></svg>